<svg width="35" height="24" viewBox="0 0 35 24" fill="none" xmlns="http://www.w3.org/2000/svg">
<g id="Icon  2">
<path id="Oval" opacity="0.15" fill-rule="evenodd" clip-rule="evenodd" d="M17.135 24C25.99 24 33.1684 18.6274 33.1684 12C33.1684 5.37258 25.99 0 17.135 0C8.27996 0 1.10156 5.37258 1.10156 12C1.10156 18.6274 8.27996 24 17.135 24Z" fill="#36B37E"/>
<path id="Icon" d="M14.9938 15.8242L10.6358 12.582C10.514 12.4909 10.4531 12.3737 10.4531 12.2305C10.4531 12.0872 10.514 11.97 10.6358 11.8789L11.6013 11.1758C11.7231 11.0716 11.8754 11.0195 12.058 11.0195C12.2407 11.0195 12.4016 11.0716 12.5408 11.1758L15.4636 13.3633L21.7266 8.67578C21.8658 8.57161 22.0267 8.51953 22.2094 8.51953C22.392 8.51953 22.5443 8.57161 22.666 8.67578L23.6316 9.3789C23.7534 9.47005 23.8143 9.58724 23.8143 9.73047C23.8143 9.87369 23.7534 9.99088 23.6316 10.082L15.9333 15.8242C15.8115 15.9284 15.6549 15.9805 15.4636 15.9805C15.2722 15.9805 15.1156 15.9284 14.9938 15.8242Z" fill="#36B37E"/>
</g>
</svg>
