<svg width="22" height="23" viewBox="0 0 22 23" fill="none" xmlns="http://www.w3.org/2000/svg">
<path d="M11.0077 5.44336C14.0839 5.44336 16.6229 7.98242 16.6229 11.0586C16.6229 14.1836 14.0839 16.6738 11.0077 16.6738C7.88271 16.6738 5.39247 14.1836 5.39247 11.0586C5.39247 7.98242 7.88271 5.44336 11.0077 5.44336ZM11.0077 14.7207C13.0097 14.7207 14.621 13.1094 14.621 11.0586C14.621 9.05664 13.0097 7.44531 11.0077 7.44531C8.95693 7.44531 7.3456 9.05664 7.3456 11.0586C7.3456 13.1094 9.00575 14.7207 11.0077 14.7207ZM18.1366 5.24805C18.1366 5.98047 17.5507 6.56641 16.8183 6.56641C16.0858 6.56641 15.4999 5.98047 15.4999 5.24805C15.4999 4.51562 16.0858 3.92969 16.8183 3.92969C17.5507 3.92969 18.1366 4.51562 18.1366 5.24805ZM21.8476 6.56641C21.9452 8.37305 21.9452 13.793 21.8476 15.5996C21.7499 17.3574 21.3593 18.8711 20.0897 20.1895C18.8202 21.459 17.2577 21.8496 15.4999 21.9473C13.6933 22.0449 8.27333 22.0449 6.46669 21.9473C4.70888 21.8496 3.19521 21.459 1.87685 20.1895C0.607317 18.8711 0.216692 17.3574 0.119036 15.5996C0.0213795 13.793 0.0213795 8.37305 0.119036 6.56641C0.216692 4.80859 0.607317 3.24609 1.87685 1.97656C3.19521 0.707031 4.70888 0.316406 6.46669 0.21875C8.27333 0.121094 13.6933 0.121094 15.4999 0.21875C17.2577 0.316406 18.8202 0.707031 20.0897 1.97656C21.3593 3.24609 21.7499 4.80859 21.8476 6.56641ZM19.5038 17.5039C20.0897 16.0879 19.9433 12.6699 19.9433 11.0586C19.9433 9.49609 20.0897 6.07812 19.5038 4.61328C19.1132 3.68555 18.3808 2.9043 17.453 2.5625C15.9882 1.97656 12.5702 2.12305 11.0077 2.12305C9.39638 2.12305 5.97841 1.97656 4.5624 2.5625C3.58583 2.95312 2.85341 3.68555 2.46279 4.61328C1.87685 6.07812 2.02333 9.49609 2.02333 11.0586C2.02333 12.6699 1.87685 16.0879 2.46279 17.5039C2.85341 18.4805 3.58583 19.2129 4.5624 19.6035C5.97841 20.1895 9.39638 20.043 11.0077 20.043C12.5702 20.043 15.9882 20.1895 17.453 19.6035C18.3808 19.2129 19.162 18.4805 19.5038 17.5039Z" fill="#5A7184"/>
</svg>
