<svg width="32" height="32" viewBox="0 0 32 32" fill="none" xmlns="http://www.w3.org/2000/svg">
<path d="M13.6094 2.21094C12.9062 2.91406 12.9766 3.96875 13.6094 4.67188L22.1172 12.6875H1.9375C0.953125 12.6875 0.25 13.4609 0.25 14.375V16.625C0.25 17.6094 0.953125 18.3125 1.9375 18.3125H22.1172L13.6094 26.3984C12.9766 27.1016 12.9766 28.1562 13.6094 28.8594L15.1562 30.4062C15.8594 31.0391 16.9141 31.0391 17.5469 30.4062L31.2578 16.6953C31.8906 16.0625 31.8906 15.0078 31.2578 14.3047L17.5469 0.664062C16.9141 0.03125 15.8594 0.03125 15.1562 0.664062L13.6094 2.21094Z" fill="#183B56"/>
</svg>
