<svg width="32" height="32" viewBox="0 0 32 32" fill="none" xmlns="http://www.w3.org/2000/svg">
<path d="M18.3203 28.8594L16.7734 30.4062C16.0703 31.0391 15.0156 31.0391 14.3828 30.4062L0.742188 16.6953C0.0390625 16.0625 0.0390625 15.0078 0.742188 14.375L14.3828 0.664062C15.0156 0.03125 16.1406 0.03125 16.7734 0.664062L18.3203 2.21094C19.0234 2.91406 18.9531 3.96875 18.3203 4.67188L9.8125 12.6875H30.0625C30.9766 12.6875 31.75 13.4609 31.75 14.375V16.625C31.75 17.6094 30.9766 18.3125 30.0625 18.3125H9.8125L18.3203 26.3984C18.9531 27.1016 19.0234 28.1562 18.3203 28.8594Z" fill="#A9B5C0"/>
</svg>
