<svg width="57" height="67" viewBox="0 0 57 67" fill="none" xmlns="http://www.w3.org/2000/svg">
<g opacity="0.2">
<path fill-rule="evenodd" clip-rule="evenodd" d="M24 48C37.2548 48 48 37.2548 48 24C48 10.7452 37.2548 0 24 0C10.7452 0 0 10.7452 0 24C0 37.2548 10.7452 48 24 48Z" stroke="#1565D8"/>
</g>
<g clip-path="url(#clip0_4184_26081)" filter="url(#filter0_d_4184_26081)">
<path fill-rule="evenodd" clip-rule="evenodd" d="M24 42C33.9411 42 42 33.9411 42 24C42 14.0589 33.9411 6 24 6C14.0589 6 6 14.0589 6 24C6 33.9411 14.0589 42 24 42Z" fill="#1565D8"/>
<path d="M21.9231 20V18.336H25.2511V30H23.4111V20H21.9231Z" fill="white"/>
</g>
<defs>
<filter id="filter0_d_4184_26081" x="-9" y="1" width="66" height="66" filterUnits="userSpaceOnUse" color-interpolation-filters="sRGB">
<feFlood flood-opacity="0" result="BackgroundImageFix"/>
<feColorMatrix in="SourceAlpha" type="matrix" values="0 0 0 0 0 0 0 0 0 0 0 0 0 0 0 0 0 0 127 0" result="hardAlpha"/>
<feOffset dy="10"/>
<feGaussianBlur stdDeviation="7.5"/>
<feColorMatrix type="matrix" values="0 0 0 0 0.0823529 0 0 0 0 0.145098 0 0 0 0 0.278431 0 0 0 0.15 0"/>
<feBlend mode="normal" in2="BackgroundImageFix" result="effect1_dropShadow_4184_26081"/>
<feBlend mode="normal" in="SourceGraphic" in2="effect1_dropShadow_4184_26081" result="shape"/>
</filter>
<clipPath id="clip0_4184_26081">
<rect width="36" height="36" fill="white" transform="translate(6 6)"/>
</clipPath>
</defs>
</svg>
