<svg width="57" height="67" viewBox="0 0 57 67" fill="none" xmlns="http://www.w3.org/2000/svg">
<g opacity="0.2">
<path fill-rule="evenodd" clip-rule="evenodd" d="M24 48C37.2548 48 48 37.2548 48 24C48 10.7452 37.2548 0 24 0C10.7452 0 0 10.7452 0 24C0 37.2548 10.7452 48 24 48Z" stroke="#1565D8"/>
</g>
<g clip-path="url(#clip0_4184_26108)" filter="url(#filter0_d_4184_26108)">
<path fill-rule="evenodd" clip-rule="evenodd" d="M24 42C33.9411 42 42 33.9411 42 24C42 14.0589 33.9411 6 24 6C14.0589 6 6 14.0589 6 24C6 33.9411 14.0589 42 24 42Z" fill="#1565D8"/>
<path d="M20.178 21.216C20.242 20.224 20.6207 19.4507 21.314 18.896C22.018 18.3413 22.914 18.064 24.002 18.064C24.7487 18.064 25.394 18.1973 25.938 18.464C26.482 18.7307 26.8927 19.0933 27.17 19.552C27.4473 20.0107 27.586 20.528 27.586 21.104C27.586 21.7653 27.41 22.3307 27.058 22.8C26.706 23.2693 26.2847 23.584 25.794 23.744V23.808C26.4233 24 26.914 24.352 27.266 24.864C27.618 25.3653 27.794 26.0107 27.794 26.8C27.794 27.4293 27.65 27.9893 27.362 28.48C27.074 28.9707 26.6473 29.36 26.082 29.648C25.5167 29.9253 24.8393 30.064 24.05 30.064C22.898 30.064 21.9487 29.7707 21.202 29.184C20.466 28.5867 20.0713 27.7333 20.018 26.624H21.778C21.8207 27.1893 22.0393 27.6533 22.434 28.016C22.8287 28.368 23.362 28.544 24.034 28.544C24.6847 28.544 25.186 28.368 25.538 28.016C25.89 27.6533 26.066 27.1893 26.066 26.624C26.066 25.8773 25.826 25.3493 25.346 25.04C24.8767 24.72 24.1513 24.56 23.17 24.56H22.754V23.056H23.186C24.05 23.0453 24.706 22.9013 25.154 22.624C25.6127 22.3467 25.842 21.9093 25.842 21.312C25.842 20.8 25.6767 20.3947 25.346 20.096C25.0153 19.7867 24.546 19.632 23.938 19.632C23.3407 19.632 22.8767 19.7867 22.546 20.096C22.2153 20.3947 22.018 20.768 21.954 21.216H20.178Z" fill="white"/>
</g>
<defs>
<filter id="filter0_d_4184_26108" x="-9" y="1" width="66" height="66" filterUnits="userSpaceOnUse" color-interpolation-filters="sRGB">
<feFlood flood-opacity="0" result="BackgroundImageFix"/>
<feColorMatrix in="SourceAlpha" type="matrix" values="0 0 0 0 0 0 0 0 0 0 0 0 0 0 0 0 0 0 127 0" result="hardAlpha"/>
<feOffset dy="10"/>
<feGaussianBlur stdDeviation="7.5"/>
<feColorMatrix type="matrix" values="0 0 0 0 0.0823529 0 0 0 0 0.145098 0 0 0 0 0.278431 0 0 0 0.15 0"/>
<feBlend mode="normal" in2="BackgroundImageFix" result="effect1_dropShadow_4184_26108"/>
<feBlend mode="normal" in="SourceGraphic" in2="effect1_dropShadow_4184_26108" result="shape"/>
</filter>
<clipPath id="clip0_4184_26108">
<rect width="36" height="36" fill="white" transform="translate(6 6)"/>
</clipPath>
</defs>
</svg>
