<svg width="100" height="100" viewBox="0 0 100 100" fill="none" xmlns="http://www.w3.org/2000/svg">
<path fill-rule="evenodd" clip-rule="evenodd" d="M50 100C77.6142 100 100 77.6142 100 50C100 22.3858 77.6142 0 50 0C22.3858 0 0 22.3858 0 50C0 77.6142 22.3858 100 50 100Z" fill="#FAAD13"/>
<path d="M54 38C55.625 38 57 39.375 57 41V49C57 50.6875 55.625 52 54 52H46C44.3125 52 43 50.6875 43 49V34C43 28.5 47.4375 24 53 24H53.5C54.3125 24 55 24.6875 55 25.5V28.5C55 29.375 54.3125 30 53.5 30H53C50.75 30 49 31.8125 49 34V38H54ZM36 38C37.625 38 39 39.375 39 41V49C39 50.6875 37.625 52 36 52H28C26.3125 52 25 50.6875 25 49V34C25 28.5 29.4375 24 35 24H35.5C36.3125 24 37 24.6875 37 25.5V28.5C37 29.375 36.3125 30 35.5 30H35C32.75 30 31 31.8125 31 34V38H36Z" fill="white"/>
</svg>
