<svg width="24" height="18" viewBox="0 0 24 18" fill="none" xmlns="http://www.w3.org/2000/svg">
<g id="Icon">
<path id="Icon_2" d="M7.79418 16.2375L0.51601 9.32697C0.312628 9.1327 0.210938 8.88292 0.210938 8.57763C0.210938 8.27235 0.312628 8.02257 0.51601 7.8283L2.12854 6.32962C2.33192 6.1076 2.58615 5.9966 2.89122 5.9966C3.19629 5.9966 3.46505 6.1076 3.69748 6.32962L8.57865 10.9922L19.0383 1.00101C19.2707 0.778982 19.5395 0.667969 19.8446 0.667969C20.1496 0.667969 20.4039 0.778982 20.6072 1.00101L22.2198 2.49968C22.4231 2.69395 22.5248 2.94373 22.5248 3.24902C22.5248 3.5543 22.4231 3.80408 22.2198 3.99835L9.36312 16.2375C9.15974 16.4595 8.89825 16.5706 8.57865 16.5706C8.25905 16.5706 7.99756 16.4595 7.79418 16.2375Z" fill="#36B37E"/>
</g>
</svg>
