<svg width="30" height="30" viewBox="0 0 30 30" fill="none" xmlns="http://www.w3.org/2000/svg">
<g id="Icon ">
<path id="Oval" opacity="0.15" fill-rule="evenodd" clip-rule="evenodd" d="M14.8183 29.7762C22.4457 29.7762 28.6289 23.4024 28.6289 15.5399C28.6289 7.67748 22.4457 1.30371 14.8183 1.30371C7.191 1.30371 1.00781 7.67748 1.00781 15.5399C1.00781 23.4024 7.191 29.7762 14.8183 29.7762Z" fill="#36B37E"/>
<path id="Icon" d="M12.9698 20.077L9.21594 16.2307C9.11104 16.1225 9.05859 15.9835 9.05859 15.8136C9.05859 15.6437 9.11104 15.5047 9.21594 15.3965L10.0476 14.5624C10.1525 14.4388 10.2836 14.377 10.441 14.377C10.5983 14.377 10.737 14.4388 10.8568 14.5624L13.3744 17.1575L18.7691 11.5965C18.889 11.4729 19.0276 11.4111 19.1849 11.4111C19.3423 11.4111 19.4734 11.4729 19.5783 11.5965L20.41 12.4307C20.5149 12.5388 20.5673 12.6778 20.5673 12.8477C20.5673 13.0176 20.5149 13.1567 20.41 13.2648L13.779 20.077C13.6741 20.2006 13.5392 20.2624 13.3744 20.2624C13.2095 20.2624 13.0747 20.2006 12.9698 20.077Z" fill="#36B37E"/>
</g>
</svg>
