<svg width="35" height="24" viewBox="0 0 35 24" fill="none" xmlns="http://www.w3.org/2000/svg">
<g id="Icon  2">
<path id="Oval" opacity="0.15" fill-rule="evenodd" clip-rule="evenodd" d="M17.0061 24C25.8611 24 33.0395 18.6274 33.0395 12C33.0395 5.37258 25.8611 0 17.0061 0C8.15106 0 0.972656 5.37258 0.972656 12C0.972656 18.6274 8.15106 24 17.0061 24Z" fill="#36B37E"/>
<path id="Icon" d="M14.8649 15.8242L10.5069 12.582C10.3851 12.4909 10.3242 12.3737 10.3242 12.2305C10.3242 12.0872 10.3851 11.97 10.5069 11.8789L11.4724 11.1758C11.5942 11.0716 11.7464 11.0195 11.9291 11.0195C12.1118 11.0195 12.2727 11.0716 12.4119 11.1758L15.3346 13.3633L21.5977 8.67578C21.7369 8.57161 21.8978 8.51953 22.0805 8.51953C22.2631 8.51953 22.4154 8.57161 22.5371 8.67578L23.5027 9.3789C23.6245 9.47005 23.6854 9.58724 23.6854 9.73047C23.6854 9.87369 23.6245 9.99088 23.5027 10.082L15.8044 15.8242C15.6826 15.9284 15.526 15.9805 15.3346 15.9805C15.1433 15.9805 14.9867 15.9284 14.8649 15.8242Z" fill="#36B37E"/>
</g>
</svg>
