<svg width="17" height="17" viewBox="0 0 17 17" fill="none" xmlns="http://www.w3.org/2000/svg">
<path d="M16.112 13.8438C16.3932 14.1562 16.3932 14.625 16.0807 14.9062L15.2057 15.7812C14.9245 16.0938 14.4557 16.0938 14.1432 15.7812L11.0495 12.6875C10.8932 12.5312 10.8307 12.3438 10.8307 12.1562V11.625C9.70573 12.5 8.33073 13 6.83073 13C3.23698 13 0.330729 10.0938 0.330729 6.5C0.330729 2.9375 3.23698 0 6.83073 0C10.3932 0 13.3307 2.9375 13.3307 6.5C13.3307 8.03125 12.7995 9.40625 11.9557 10.5H12.4557C12.6432 10.5 12.8307 10.5938 12.987 10.7188L16.112 13.8438ZM6.83073 10.5C9.01823 10.5 10.8307 8.71875 10.8307 6.5C10.8307 4.3125 9.01823 2.5 6.83073 2.5C4.61198 2.5 2.83073 4.3125 2.83073 6.5C2.83073 8.71875 4.61198 10.5 6.83073 10.5Z" fill="#959EAD"/>
</svg>
