<svg width="22" height="23" viewBox="0 0 22 23" fill="none" xmlns="http://www.w3.org/2000/svg">
<path d="M11.0077 5.44434C14.0839 5.44434 16.6229 7.9834 16.6229 11.0596C16.6229 14.1846 14.0839 16.6748 11.0077 16.6748C7.88271 16.6748 5.39247 14.1846 5.39247 11.0596C5.39247 7.9834 7.88271 5.44434 11.0077 5.44434ZM11.0077 14.7217C13.0097 14.7217 14.621 13.1104 14.621 11.0596C14.621 9.05762 13.0097 7.44629 11.0077 7.44629C8.95693 7.44629 7.3456 9.05762 7.3456 11.0596C7.3456 13.1104 9.00575 14.7217 11.0077 14.7217ZM18.1366 5.24902C18.1366 5.98145 17.5507 6.56738 16.8183 6.56738C16.0858 6.56738 15.4999 5.98145 15.4999 5.24902C15.4999 4.5166 16.0858 3.93066 16.8183 3.93066C17.5507 3.93066 18.1366 4.5166 18.1366 5.24902ZM21.8476 6.56738C21.9452 8.37402 21.9452 13.7939 21.8476 15.6006C21.7499 17.3584 21.3593 18.8721 20.0897 20.1904C18.8202 21.46 17.2577 21.8506 15.4999 21.9482C13.6933 22.0459 8.27333 22.0459 6.46669 21.9482C4.70888 21.8506 3.19521 21.46 1.87685 20.1904C0.607317 18.8721 0.216692 17.3584 0.119036 15.6006C0.0213795 13.7939 0.0213795 8.37402 0.119036 6.56738C0.216692 4.80957 0.607317 3.24707 1.87685 1.97754C3.19521 0.708008 4.70888 0.317383 6.46669 0.219727C8.27333 0.12207 13.6933 0.12207 15.4999 0.219727C17.2577 0.317383 18.8202 0.708008 20.0897 1.97754C21.3593 3.24707 21.7499 4.80957 21.8476 6.56738ZM19.5038 17.5049C20.0897 16.0889 19.9433 12.6709 19.9433 11.0596C19.9433 9.49707 20.0897 6.0791 19.5038 4.61426C19.1132 3.68652 18.3808 2.90527 17.453 2.56348C15.9882 1.97754 12.5702 2.12402 11.0077 2.12402C9.39638 2.12402 5.97841 1.97754 4.5624 2.56348C3.58583 2.9541 2.85341 3.68652 2.46279 4.61426C1.87685 6.0791 2.02333 9.49707 2.02333 11.0596C2.02333 12.6709 1.87685 16.0889 2.46279 17.5049C2.85341 18.4814 3.58583 19.2139 4.5624 19.6045C5.97841 20.1904 9.39638 20.0439 11.0077 20.0439C12.5702 20.0439 15.9882 20.1904 17.453 19.6045C18.3808 19.2139 19.162 18.4814 19.5038 17.5049Z" fill="#5A7184"/>
</svg>
