<svg width="1140" height="396" viewBox="0 0 1140 396" fill="none" xmlns="http://www.w3.org/2000/svg">
<rect y="5.36523" width="1140" height="389.669" rx="20" fill="#F9FBFE"/>
<path opacity="0.06" d="M192 92.4219C200.125 92.4219 207 99.2969 207 107.422V147.422C207 155.859 200.125 162.422 192 162.422H152C143.562 162.422 137 155.859 137 147.422V72.4219C137 44.9219 159.188 22.4219 187 22.4219H189.5C193.562 22.4219 197 25.8594 197 29.9219V44.9219C197 49.2969 193.562 52.4219 189.5 52.4219H187C175.75 52.4219 167 61.4844 167 72.4219V92.4219H192ZM102 92.4219C110.125 92.4219 117 99.2969 117 107.422V147.422C117 155.859 110.125 162.422 102 162.422H62C53.5625 162.422 47 155.859 47 147.422V72.4219C47 44.9219 69.1875 22.4219 97 22.4219H99.5C103.562 22.4219 107 25.8594 107 29.9219V44.9219C107 49.2969 103.562 52.4219 99.5 52.4219H97C85.75 52.4219 77 61.4844 77 72.4219V92.4219H102Z" fill="#183B56"/>
</svg>
