<svg width="110" height="109" viewBox="0 0 110 109" fill="none" xmlns="http://www.w3.org/2000/svg">
<g clip-path="url(#clip0_4184_26556)">
<path d="M48.8815 92.7037C47.1436 93.235 45.7677 93.0856 44.6862 92.6561C41.7218 91.6621 39.2014 89.0121 38.0324 85.1887C35.3614 77.0738 36.0931 63.9279 40.0593 50.1731C45.0339 32.8796 53.9436 19.1337 61.6578 16.3951C63.3957 15.8638 65.066 15.7332 66.4951 16.0564C70.4347 17.1324 73.7134 21.6409 72.0829 29.3607C71.8272 30.389 70.8907 31.0554 69.8624 30.7997C68.834 30.544 68.1677 29.6075 68.4234 28.5792C69.4606 23.8913 68.171 20.2949 65.3129 19.6484C64.6853 19.4602 63.937 19.499 62.8942 19.8178C57.2124 21.7449 48.7609 33.2603 43.5982 51.1816C39.767 64.1349 38.9966 76.5325 41.4551 83.9523C42.3052 86.7329 43.8117 88.5527 45.6946 89.1173L45.9215 89.2379C46.8292 89.7205 50.0105 88.9379 53.4133 83.9069C53.8959 82.9992 55.1655 82.8011 55.8994 83.3369C56.8071 83.8195 57.0053 85.0891 56.4695 85.823C53.7763 90.067 51.1407 92.013 48.8815 92.7037Z" fill="url(#paint0_linear_4184_26556)"/>
<path d="M86.7746 58.127C86.0794 58.3396 85.278 58.2045 84.8917 57.5625C84.2784 56.7998 84.481 55.5977 85.2437 54.9845C89.0571 51.9183 91.3351 48.1813 90.5913 45.7482C89.398 40.6021 74.7312 38.6251 52.4619 44.1033C50.3233 44.5671 48.5854 45.0984 46.8475 45.6297C29.6425 50.8898 18.5931 58.2587 20.0133 63.5254C20.4771 65.664 25.1361 67.8502 29.7853 68.1391C30.7605 68.2211 31.6006 69.1044 31.5187 70.0796C31.4368 71.0548 30.5535 71.895 29.5783 71.8131C23.9539 71.4422 17.6389 68.8121 16.6582 64.3612C14.4941 56.6613 25.4516 48.3704 45.7849 42.1539C47.5228 41.6226 49.4345 41.0382 51.573 40.5744C71.0086 35.7725 91.7193 35.1416 94.1202 44.8594C95.1684 48.9096 92.514 53.9019 87.4697 57.9145C87.1221 58.0208 86.9484 58.0739 86.7746 58.127Z" fill="url(#paint1_linear_4184_26556)"/>
<path d="M79.9526 84.9154C78.9098 85.2342 77.6402 85.4323 76.2643 85.2829C67.6468 85.067 54.5142 76.92 43.9397 65.3304C36.8321 57.6217 30.3178 46.8811 27.328 37.7235C25.4008 32.0416 25.6753 27.967 28.1515 25.4996C28.9142 24.8864 29.6769 24.2731 30.5458 24.0075C33.2733 22.9836 37.1066 23.7119 42.3789 26.6608C43.2866 27.1434 43.6054 28.1862 43.1228 29.0938C42.6402 30.0015 41.5974 30.3203 40.6898 29.8377C35.2437 26.942 32.825 27.1113 31.9561 27.377C31.4347 27.5364 31.1403 27.8164 30.672 28.1496C29.3736 29.4967 29.3016 32.3692 30.8037 36.6608C33.156 43.733 38.8013 54.7392 46.469 63.0368C58.1106 75.6304 70.0311 81.6776 76.3506 81.8359C78.0741 81.8791 79.4644 81.454 80.4009 80.7876C82.7996 76.8237 77.2793 63.1188 65.0533 48.6135C64.4401 47.8509 64.4689 46.7019 65.2315 46.0886C65.9942 45.4754 67.1432 45.5042 67.7564 46.2668C79.0361 59.5412 88.0376 76.5525 83.2158 83.1576L83.042 83.2107C82.1587 84.0509 81.1691 84.5435 79.9526 84.9154Z" fill="url(#paint2_linear_4184_26556)"/>
<path d="M60.4588 52.8675C61.362 55.8219 59.7935 58.7719 56.8391 59.6751C53.8847 60.5784 50.9347 59.0099 50.0315 56.0555C49.1282 53.101 50.6967 50.1511 53.6512 49.2478C56.6056 48.3446 59.5555 49.9131 60.4588 52.8675Z" fill="url(#paint3_linear_4184_26556)"/>
</g>
<defs>
<linearGradient id="paint0_linear_4184_26556" x1="27.708" y1="28.6883" x2="83.8334" y2="80.3132" gradientUnits="userSpaceOnUse">
<stop stop-color="#0086EF"/>
<stop offset="1" stop-color="#8F979E"/>
</linearGradient>
<linearGradient id="paint1_linear_4184_26556" x1="27.5102" y1="28.9107" x2="83.6338" y2="80.5362" gradientUnits="userSpaceOnUse">
<stop stop-color="#0086EF"/>
<stop offset="1" stop-color="#8F979E"/>
</linearGradient>
<linearGradient id="paint2_linear_4184_26556" x1="26.9926" y1="29.4722" x2="83.1162" y2="81.0977" gradientUnits="userSpaceOnUse">
<stop stop-color="#0086EF"/>
<stop offset="1" stop-color="#8F979E"/>
</linearGradient>
<linearGradient id="paint3_linear_4184_26556" x1="27.4873" y1="28.9282" x2="83.6109" y2="80.5538" gradientUnits="userSpaceOnUse">
<stop stop-color="#0086EF"/>
<stop offset="1" stop-color="#8F979E"/>
</linearGradient>
<clipPath id="clip0_4184_26556">
<rect width="87.2301" height="87.2301" fill="white" transform="translate(0.78125 25.5039) rotate(-17)"/>
</clipPath>
</defs>
</svg>
