<svg width="198" height="198" viewBox="0 0 198 198" fill="none" xmlns="http://www.w3.org/2000/svg">
<g id="Icon">
<g id="Border" opacity="0.2">
<rect id="Shape" x="3" y="3" width="192" height="192" rx="16" stroke="#1565D8"/>
</g>
<g id="icon_Photos">
<path id="Path" fill-rule="evenodd" clip-rule="evenodd" d="M73.5263 67.8023L77.6986 59.4601C78.0792 58.7569 78.6966 57.7571 79.4823 56.7374C80.4952 55.423 81.5199 54.4356 82.6716 53.8739C83.2887 53.5729 83.9351 53.4023 84.6094 53.4023H113.409C114.084 53.4023 114.73 53.5729 115.347 53.8739C116.499 54.4356 117.524 55.423 118.536 56.7374C119.322 57.7571 119.94 58.7569 120.356 59.529L124.493 67.8023H132.609C141.888 67.8023 149.409 75.324 149.409 84.6023V127.802C149.409 137.081 141.888 144.602 132.609 144.602H65.4094C56.131 144.602 48.6094 137.081 48.6094 127.802V84.6023C48.6094 75.324 56.131 67.8023 65.4094 67.8023H73.5263ZM67.8 91.8012C70.451 91.8012 72.6 89.6521 72.6 87.0012C72.6 84.3502 70.451 82.2012 67.8 82.2012C65.149 82.2012 63 84.3502 63 87.0012C63 89.6521 65.149 91.8012 67.8 91.8012ZM99.0141 125.401C110.943 125.401 120.614 115.731 120.614 103.801C120.614 91.8718 110.943 82.2012 99.0141 82.2012C87.0847 82.2012 77.4141 91.8718 77.4141 103.801C77.4141 115.731 87.0847 125.401 99.0141 125.401Z" fill="#1565D8"/>
<path id="Path_2" opacity="0.3" fill-rule="evenodd" clip-rule="evenodd" d="M98.9953 120.6C108.274 120.6 115.795 113.078 115.795 103.8C115.795 94.5216 108.274 87 98.9953 87C89.7169 87 82.1953 94.5216 82.1953 103.8C82.1953 113.078 89.7169 120.6 98.9953 120.6Z" fill="#1565D8"/>
</g>
</g>
</svg>
